HIERARCHY
ROOT hip
{
  OFFSET 0 0 0
  CHANNELS 6 Xposition Yposition Zposition Zrotation Yrotation Xrotation
  JOINT abdomen
  {
    OFFSET 0 20.6881 -0.73152
    CHANNELS 3 Zrotation Xrotation Yrotation
    JOINT chest
    {
      OFFSET 0 11.7043 -0.48768
      CHANNELS 3 Zrotation Xrotation Yrotation
      JOINT neck
      {
        OFFSET 0 22.1894 -2.19456
        CHANNELS 3 Zrotation Xrotation Yrotation
        JOINT head
        {
          OFFSET -0.24384 7.07133 1.2192
          CHANNELS 3 Zrotation Xrotation Yrotation
          JOINT leftEye
          {
            OFFSET 4.14528 8.04674 8.04672
            CHANNELS 3 Zrotation Xrotation Yrotation
            End Site
            {
              OFFSET 1 0 0
            }
          }
          JOINT rightEye
          {
            OFFSET -3.6576 8.04674 8.04672
            CHANNELS 3 Zrotation Xrotation Yrotation
            End Site
            {
              OFFSET 1 0 0
            }
          }
        }
      }
      JOINT rCollar
      {
        OFFSET -2.68224 19.2634 -4.8768
        CHANNELS 3 Zrotation Xrotation Yrotation
        JOINT rShldr
        {
          OFFSET -8.77824 -1.95073 1.46304
          CHANNELS 3 Zrotation Xrotation Yrotation
          JOINT rForeArm
          {
            OFFSET -28.1742 -1.7115 0.48768
            CHANNELS 3 Zrotation Xrotation Yrotation
            JOINT rHand
            {
              OFFSET -22.5879 0.773209 7.07136
              CHANNELS 3 Zrotation Xrotation Yrotation
              JOINT rThumb1
              {
                OFFSET -1.2192 -0.487915 3.41376
                CHANNELS 3 Zrotation Xrotation Yrotation
                JOINT rThumb2
                {
                  OFFSET -3.37035 -0.52449 3.41376
                  CHANNELS 3 Zrotation Xrotation Yrotation
                  End Site
                  {
                    OFFSET -1.78271 -1.18214 1.43049
                  }
                }
              }
              JOINT rIndex1
              {
                OFFSET -7.75947 0.938293 5.60832
                CHANNELS 3 Zrotation Xrotation Yrotation
                JOINT rIndex2
                {
                  OFFSET -2.54057 -0.884171 1.56538
                  CHANNELS 3 Zrotation Xrotation Yrotation
                  End Site
                  {
                    OFFSET -1.62519 -0.234802 1.16502
                  }
                }
              }
              JOINT rMid1
              {
                OFFSET -8.24714 1.18213 3.41376
                CHANNELS 3 Zrotation Xrotation Yrotation
                JOINT rMid2
                {
                  OFFSET -3.10165 -0.590103 1.0647
                  CHANNELS 3 Zrotation Xrotation Yrotation
                  End Site
                  {
                    OFFSET -2.48547 -0.328903 0.83742
                  }
                }
              }
              JOINT rRing1
              {
                OFFSET -8.82822 0.546677 1.51678
                CHANNELS 3 Zrotation Xrotation Yrotation
                JOINT rRing2
                {
                  OFFSET -2.60934 -0.819778 -0.0198488
                  CHANNELS 3 Zrotation Xrotation Yrotation
                  End Site
                  {
                    OFFSET -2.33842 -0.294052 0.168128
                  }
                }
              }
              JOINT rPinky1
              {
                OFFSET -8.27202 -0.0477905 -0.4584
                CHANNELS 3 Zrotation Xrotation Yrotation
                JOINT rPinky2
                {
                  OFFSET -1.82734 -0.647385 -0.700984
                  CHANNELS 3 Zrotation Xrotation Yrotation
                  End Site
                  {
                    OFFSET -1.69225 -0.51767 -0.607171
                  }
                }
              }
            }
          }
        }
      }
      JOINT lCollar
      {
        OFFSET 2.68224 19.2634 -4.8768
        CHANNELS 3 Zrotation Xrotation Yrotation
        JOINT lShldr
        {
          OFFSET 8.77824 -1.95073 1.46304
          CHANNELS 3 Zrotation Xrotation Yrotation
          JOINT lForeArm
          {
            OFFSET 28.1742 -1.7115 0.48768
            CHANNELS 3 Zrotation Xrotation Yrotation
            JOINT lHand
            {
              OFFSET 22.5879 0.773209 7.07136
              CHANNELS 3 Zrotation Xrotation Yrotation
              JOINT lThumb1
              {
                OFFSET 1.2192 -0.487915 3.41376
                CHANNELS 3 Zrotation Xrotation Yrotation
                JOINT lThumb2
                {
                  OFFSET 3.37035 -0.52449 3.41376
                  CHANNELS 3 Zrotation Xrotation Yrotation
                  End Site
                  {
                    OFFSET 1.78271 -1.18214 1.43049
                  }
                }
              }
              JOINT lIndex1
              {
                OFFSET 7.75947 0.938293 5.60832
                CHANNELS 3 Zrotation Xrotation Yrotation
                JOINT lIndex2
                {
                  OFFSET 2.54057 -0.884171 1.56538
                  CHANNELS 3 Zrotation Xrotation Yrotation
                  End Site
                  {
                    OFFSET 1.62519 -0.234802 1.16502
                  }
                }
              }
              JOINT lMid1
              {
                OFFSET 8.24714 1.18213 3.41376
                CHANNELS 3 Zrotation Xrotation Yrotation
                JOINT lMid2
                {
                  OFFSET 3.10165 -0.590103 1.0647
                  CHANNELS 3 Zrotation Xrotation Yrotation
                  End Site
                  {
                    OFFSET 2.48547 -0.328903 0.83742
                  }
                }
              }
              JOINT lRing1
              {
                OFFSET 8.82822 0.546677 1.51678
                CHANNELS 3 Zrotation Xrotation Yrotation
                JOINT lRing2
                {
                  OFFSET 2.60934 -0.819778 -0.0198488
                  CHANNELS 3 Zrotation Xrotation Yrotation
                  End Site
                  {
                    OFFSET 2.33842 -0.294052 0.168128
                  }
                }
              }
              JOINT lPinky1
              {
                OFFSET 8.27202 -0.0477905 -0.4584
                CHANNELS 3 Zrotation Xrotation Yrotation
                JOINT lPinky2
                {
                  OFFSET 1.82734 -0.647385 -0.700984
                  CHANNELS 3 Zrotation Xrotation Yrotation
                  End Site
                  {
                    OFFSET 1.69225 -0.51767 -0.607171
                  }
                }
              }
            }
          }
        }
      }
    }
  }
  JOINT rButtock
  {
    OFFSET -8.77824 4.35084 1.2192
    CHANNELS 3 Zrotation Xrotation Yrotation
    JOINT rThigh
    {
      OFFSET 0 -1.70687 -2.19456
      CHANNELS 3 Zrotation Xrotation Yrotation
      JOINT rShin
      {
        OFFSET 0 -36.8199 0.73152
        CHANNELS 3 Zrotation Xrotation Yrotation
        JOINT rFoot
        {
          OFFSET 0.73152 -45.1104 -5.12064
          CHANNELS 3 Zrotation Xrotation Yrotation
          End Site
          {
            OFFSET -1.1221 -3.69964 12.103
          }
        }
      }
    }
  }
  JOINT lButtock
  {
    OFFSET 8.77824 4.35084 1.2192
    CHANNELS 3 Zrotation Xrotation Yrotation
    JOINT lThigh
    {
      OFFSET 0 -1.70687 -2.19456
      CHANNELS 3 Zrotation Xrotation Yrotation
      JOINT lShin
      {
        OFFSET 0 -36.8199 0.73152
        CHANNELS 3 Zrotation Xrotation Yrotation
        JOINT lFoot
        {
          OFFSET -0.73152 -45.1104 -5.12064
          CHANNELS 3 Zrotation Xrotation Yrotation
          End Site
          {
            OFFSET 1.1221 -3.69964 12.103
          }
        }
      }
    }
  }
}
MOTION
Frames:	4
Frame Time:	0.03333
-4.329591761269703 81.83761908780028 -52.78508832753835 106.79324340820312 59.001976013183594 103.24191284179688 -9.722708702087402 35.11470413208008 10.054900169372559 -6.305673122406006 -9.445456504821777 1.0129774808883667 0.47323867678642273 11.521842956542969 7.775463581085205 -13.683944702148438 -21.319372177124023 13.175817489624023 0.06806230545043945 0.18879574537277222 0.08691612631082535 0.14745983481407166 -0.03767259418964386 -0.28732943534851074 -0.06080331280827522 -0.35975414514541626 -0.04297143220901489 14.608712196350098 54.9820671081543 39.43479537963867 -26.814790725708008 -40.110267639160156 84.86051940917969 0.990450918674469 2.1172268390655518 -0.37087565660476685 0.23677481710910797 -0.5690840482711792 -0.6329481601715088 -0.06101827695965767 -0.8907070159912109 0.5309932827949524 -0.3361862003803253 -0.43658503890037537 -0.665972888469696 8.487006187438965 5.832960605621338 1.5760130882263184 0.06427399814128876 -1.7520697116851807 -0.7140135169029236 2.5549066066741943 -0.10995464026927948 -0.04492548108100891 -0.016467232257127762 -0.21135221421718597 0.12113919109106064 11.340770721435547 1.946065902709961 -0.25112470984458923 -0.40927696228027344 -0.13442350924015045 -0.24271488189697266 1.8369381427764893 -0.8645544052124023 0.11554889380931854 0.12107794731855392 -0.19280008971691132 0.39842885732650757 -65.5460433959961 -1.394336462020874 0.2011786848306656 25.305696487426758 -23.690322875976562 -59.945064544677734 2.5293688774108887 -32.11982345581055 5.074063777923584 0.37020599842071533 0.483276903629303 0.33202657103538513 -0.5863364338874817 -0.61009281873703 -0.8547250628471375 0.5035746693611145 1.1525161266326904 -0.455524742603302 -8.098252296447754 6.064831256866455 -0.39404168725013733 -0.23586104810237885 0.30337026715278625 0.6154771447181702 -2.5899453163146973 0.37642085552215576 -0.2598523199558258 -0.5499106049537659 -0.5851355195045471 -0.3588498830795288 -10.303479194641113 1.3607406616210938 -0.5225121974945068 0.396854966878891 -0.4789249897003174 -1.0775127410888672 -2.547957420349121 -0.6015768051147461 0.16985785961151123 -0.3841392695903778 0.724424421787262 0.7672610878944397 -34.07488250732422 -24.033588409423828 -8.464727401733398 -0.23732897639274597 42.735130310058594 2.880622386932373 -5.451952934265137 -10.61637020111084 -26.35898208618164 0.6792867183685303 0.6744962930679321 0.03983483463525772 139.5214080810547 -17.974525451660156 130.05880737304688 178.43984985351562 44.68954849243164 -179.1590576171875 -1.2120299339294434 0.7171552777290344 -3.749674081802368
-4.404803243088945 80.40668079630427 -52.33091500540005 108.5805435180664 59.897300720214844 105.4471435546875 -9.699477195739746 35.2146110534668 10.376456260681152 -6.270138263702393 -9.455559730529785 1.055142879486084 0.37447115778923035 11.801730155944824 8.222094535827637 -12.974023818969727 -21.74965476989746 13.778249740600586 -0.18334251642227173 0.2902650535106659 -0.0012039508437737823 0.22717411816120148 -0.1205858513712883 -0.298417866230011 -0.15795810520648956 -0.37983861565589905 -0.03150823712348938 14.909281730651855 55.31165313720703 39.86827087402344 -27.29953384399414 -40.63545608520508 85.06929779052734 1.0192769765853882 2.590653896331787 -0.5166197419166565 0.43173351883888245 -0.5257404446601868 -0.4083004593849182 -0.14317640662193298 -0.9286261200904846 0.7084940075874329 -0.3372998833656311 -0.4273442327976227 -0.673192024230957 8.280830383300781 5.785861492156982 1.5329278707504272 -0.0007714125094935298 -1.6390767097473145 -0.7992046475410461 2.5895028114318848 -0.1269863396883011 0.024693742394447327 0.09787989407777786 -0.16704963147640228 0.22896967828273773 11.23046875 1.9658235311508179 -0.295695960521698 -0.3815174996852875 -0.10572822391986847 -0.302389919757843 1.6928480863571167 -0.8727080225944519 0.23040534555912018 0.0720086544752121 -0.14240442216396332 0.3187735974788666 -65.44916534423828 0.40729400515556335 -0.9111693501472473 25.803720474243164 -25.90923500061035 -63.676475524902344 2.6061675548553467 -32.90253829956055 5.6108832359313965 0.3822951018810272 0.44608786702156067 0.3916246294975281 -0.5946288704872131 -0.5949162244796753 -0.8694611191749573 0.635818362236023 1.2821757793426514 -0.5138060450553894 -8.119659423828125 6.053952693939209 -0.5468970537185669 -0.37516433000564575 0.4066144824028015 0.6901050806045532 -2.617509126663208 0.4425053000450134 -0.30971550941467285 -0.5722295641899109 -0.43894174695014954 -0.5047580003738403 -10.34145450592041 1.3290693759918213 -0.46528327465057373 0.26094797253608704 -0.5195576548576355 -0.9537484645843506 -2.333087921142578 -0.823493242263794 0.09215761721134186 -0.45410066843032837 0.7076417803764343 0.8377625346183777 -33.66645050048828 -25.531965255737305 -10.494563102722168 -0.41828981041908264 45.302364349365234 2.8406548500061035 -5.672410488128662 -11.190608024597168 -25.77703857421875 0.8141056299209595 0.7584658265113831 -0.0511179082095623 140.79864501953125 -18.48811149597168 133.1237335205078 178.55641174316406 44.190757751464844 -179.07252502441406 -1.3519147634506226 1.2612390518188477 -4.632856845855713
-4.551172489455026 79.8070926400147 -51.90306731339626 109.44564056396484 60.71723937988281 108.64051818847656 -9.5707426071167 35.03288650512695 10.649572372436523 -6.2249369621276855 -9.356390953063965 1.1549463272094727 0.21560636162757874 12.022208213806152 8.535598754882812 -12.278610229492188 -22.235469818115234 14.333834648132324 -0.41699400544166565 0.3659186363220215 -0.08219186961650848 0.3115176260471344 -0.12547391653060913 -0.243026003241539 -0.2982436418533325 -0.3774530291557312 0.12736260890960693 14.894621849060059 55.424705505371094 40.763587951660156 -27.789642333984375 -41.09117889404297 85.1153564453125 0.9501281380653381 3.2361159324645996 -0.5386559963226318 0.5937497615814209 -0.5251476168632507 -0.16394612193107605 -0.24041353166103363 -0.8750288486480713 0.7588792443275452 -0.3888695240020752 -0.4289201498031616 -0.6294499039649963 7.9621195793151855 5.638172149658203 1.3351682424545288 -0.12507300078868866 -1.3071093559265137 -0.877699613571167 2.5755035877227783 -0.03566981479525566 -0.007622645236551762 0.2261105179786682 -0.07841401547193527 0.25344735383987427 11.002585411071777 1.929830551147461 -0.40030637383461 -0.2856141924858093 -0.04494012892246246 -0.2776796817779541 1.6800075769424438 -1.0104405879974365 0.24358654022216797 -0.09337696433067322 -0.040840715169906616 0.2948863208293915 -65.32426452636719 2.1896870136260986 -1.906042456626892 26.200538635253906 -28.032489776611328 -67.2514877319336 2.622305393218994 -33.36709976196289 6.043482303619385 0.3172246515750885 0.3483135998249054 0.5001881718635559 -0.4915792644023895 -0.5504576563835144 -0.7303951382637024 0.7607676982879639 1.2384755611419678 -0.5577441453933716 -8.068519592285156 6.048794746398926 -0.5863001346588135 -0.5839970707893372 0.5693711638450623 0.7053261995315552 -2.5996148586273193 0.5100958347320557 -0.4019404649734497 -0.5004936456680298 -0.21948885917663574 -0.6334334015846252 -10.371161460876465 1.1884428262710571 -0.3692033290863037 0.12365002930164337 -0.4152011275291443 -0.7734401822090149 -2.165158987045288 -1.0526461601257324 0.04750543087720871 -0.5845562219619751 0.6980910897254944 0.8381626009941101 -33.23103332519531 -27.095996856689453 -12.588175773620605 -0.6512605547904968 47.79959487915039 2.8331844806671143 -5.9064764976501465 -11.804065704345703 -25.099136352539062 0.882846474647522 0.830880343914032 -0.14769423007965088 142.0274200439453 -20.150691986083984 135.7470245361328 178.5131072998047 44.83631896972656 -178.825439453125 -1.3419708013534546 1.9712210893630981 -5.438145637512207
-4.754137643779184 78.87803664873123 -51.48336915765019 110.42474365234375 61.5836067199707 111.73369598388672 -9.43311595916748 34.9770622253418 10.986900329589844 -6.280627727508545 -9.278437614440918 1.3299665451049805 0.0853227972984314 12.120405197143555 8.819009780883789 -11.72765064239502 -22.870323181152344 15.01812744140625 -0.6507375836372375 0.45168232917785645 -0.13449831306934357 0.3694963753223419 -0.09064968675374985 -0.11645353585481644 -0.47731977701187134 -0.3675050735473633 0.3121492266654968 14.517468452453613 55.506439208984375 42.02687072753906 -28.255231857299805 -41.63418197631836 85.18267822265625 0.9065073728561401 4.096219539642334 -0.4235231578350067 0.7094156742095947 -0.5223735570907593 0.11540088057518005 -0.3153075575828552 -0.746424674987793 0.7293118834495544 -0.4878281056880951 -0.40019649267196655 -0.5752090811729431 7.628329753875732 5.467062950134277 1.042930006980896 -0.256163626909256 -0.9277620911598206 -0.9088249206542969 2.4870898723602295 0.14424100518226624 -0.103830985724926 0.35987070202827454 -0.001981461653485894 0.27271148562431335 10.756760597229004 1.8370676040649414 -0.5387416481971741 -0.16548697650432587 0.0024027046747505665 -0.16890665888786316 1.6929441690444946 -1.1596131324768066 0.18118983507156372 -0.2979399561882019 0.07736606150865555 0.27121540904045105 -65.15287017822266 3.7758631706237793 -2.5545570850372314 26.56626319885254 -30.25223159790039 -70.74375915527344 2.6057467460632324 -34.065467834472656 6.415236473083496 0.19398878514766693 0.1935214400291443 0.6528515219688416 -0.33217576146125793 -0.4538121819496155 -0.4513206481933594 0.8560582399368286 1.103308916091919 -0.5742226839065552 -8.01127815246582 6.085383892059326 -0.5064312815666199 -0.8061935901641846 0.7210564613342285 0.6540329456329346 -2.603935718536377 0.6017103791236877 -0.5076716542243958 -0.3644472062587738 0.010442787781357765 -0.666015625 -10.39421272277832 0.983256995677948 -0.24682652950286865 -0.023753279820084572 -0.23818489909172058 -0.6093167066574097 -2.119377613067627 -1.2402493953704834 0.03771929070353508 -0.7657886743545532 0.6374513506889343 0.7625594139099121 -32.726959228515625 -28.502782821655273 -14.37210750579834 -0.9857115745544434 50.06061935424805 2.912196159362793 -6.109405994415283 -12.45302677154541 -24.484281539916992 0.8990204930305481 0.9073693752288818 -0.23153769969940186 143.04608154296875 -22.3385066986084 137.7999725341797 178.3389434814453 45.96110153198242 -178.51707458496094 -1.1987980604171753 3.0353493690490723 -6.348264217376709
